<svg width="28.6" height="24" viewBox="0 0 7.57 6.35" xmlns="http://www.w3.org/2000/svg">
  <path d="m1.5 0c-.834.00071-1.5098.67655-1.5104 1.5105v3.3291c7e-4.83397.6764 1.5097 1.5104 1.5104h1.5782c.3087 0 .6018-.13435.803-.36861l2.2452-2.6154v2.984h1.4321v-4.5601h5e-4c-2e-4-.19492-.1553-.35214-.3491-.35712h-.9612c-.01 0-.017-.00041-.026 0-.1814-.0142-.3222-.17043-.3224-.35662h5e-4v-.71638c-2e-4-.19808-.16-.35764-.3582-.35764zm5.6799 0c-.065 2e-4-.1271.0152-.1864.0488-.06.0325-.1065.0783-.1408.13913-.034.061-.051.12419-.051.19015 0 .0661.017.12907.051.18903.034.06.079.10681.1392.14025.06.0325.1231.0498.189.0498.066 0 .1284-.0163.188-.0498.06-.0345.1065-.0803.1397-.14025.034-.06.051-.12297.051-.18903 0-.0661-.017-.12947-.052-.19015-.034-.061-.08-.10711-.1402-.13913-.06-.0335-.1217-.0488-.1864-.0488zm0 .0752c.052 0 .1019.0132.1497.0386.048.0254.085.064.1129.1119.027.0488.042.0996.042.15326 0 .0528-.013.10386-.041.15183-.027.0478-.064.0854-.1124.11189-.048.0274-.099.0417-.1512.0417-.053 0-.1033-.0142-.1514-.0417-.048-.0274-.086-.064-.1129-.11189-.026-.0478-.04-.0986-.04-.15183 0-.0529.013-.10448.041-.15326.027-.0488.065-.0864.1129-.1119.048-.0264.097-.0386.1497-.0386zm-.165.0925v.42176h.077v-.15966h.1006c.022 0 .038 2e-4.047.0122.01.0102.015.0213.016.0376l.01.11088h.078l-.011-.12287c0-.0254-.01-.0437-.025-.0559-.01-.0102-.017-.0122-.03-.0152v-.00051h.0022l5e-4-.00051 5e-4-.00061h5e-4v-.00051h.0011v-.00051l5e-4-5e-4s0-.0102.01-.0102v-.00051h.001l5e-4-5e-4h.0011l5e-4-.00051h.0011l5e-4-.00051h6e-4c.014-.0102.025-.0203.034-.0366.01-.0152.012-.0325.012-.0518 0-.0264-.01-.0478-.019-.0671-.012-.0193-.029-.0335-.052-.0437-.022-.0102-.049-.0153-.078-.0153zm.077.065h.09c.025 0 .044.0102.057.0173.013.0112.02.0274.02.0478 0 .0203-.01.0356-.02.0467-.013.0112-.032.0173-.055.0173h-.094zm-5.6016 1.1974c0-.00031.01 0 .01 0v.00051h4.4016l-2.9946 3.4872h-1.407c-.044 0-.079-.0356-.078-.0793v-3.3302c-2e-4-.0417.031-.0742.071-.0783z" fill="#ffffff"/>
</svg>
