<?xml version="1.0" encoding="UTF-8"?>
<!-- Created with Inkscape (http://www.inkscape.org/) -->
<svg width="7.5688mm" height="6.35mm" version="1.1" viewBox="0 0 7.5688 6.35" xmlns="http://www.w3.org/2000/svg">
 <g transform="translate(-2301.1 -1248.8)">
  <g transform="matrix(.059597 0 0 .059597 2337.2 1132.3)" fill="#fff">
   <path class="cls-1" d="m-580.72 1954.7c-13.994 0.011-25.335 11.353-25.346 25.346v55.854c0.0118 13.993 11.353 25.333 25.346 25.345h26.482c5.1796 0 10.102-2.2564 13.478-6.1847l37.673-43.888v50.072h24.022v-70.484c0-6.6334-5.3772-12.018-12.011-12.008-5.2648 0.01-10.53 0.012-15.794-0.042l-50.244 58.512h-23.605c-0.73376 0-1.3285-0.5944-1.324-1.3281v-55.857c-4e-3 -0.7335 0.59043-1.3293 1.324-1.327h73.849v-18.016c-3e-3 -3.3246-2.6801-6.0002-6.0053-6.0002z" stroke-width="3.7377"/>
   <path d="m-485.42 1954.7q1.6331 0 3.1335 0.8207 1.5004 0.8124 2.3543 2.3377 0.86214 1.5253 0.86214 3.1915 0 1.658-0.84556 3.1668-0.83727 1.5004-2.346 2.346-1.5004 0.8372-3.1584 0.8372t-3.1667-0.8372q-1.5005-0.8456-2.346-2.346-0.83726-1.5088-0.83726-3.1668 0-1.6662 0.85384-3.1915 0.86214-1.5253 2.3626-2.3377 1.5004-0.8207 3.1335-0.8207zm8e-3 1.2434q-1.3098 0-2.5118 0.6549t-1.8984 1.8818q-0.68806 1.2269-0.68806 2.5698 0 1.3347 0.67148 2.545 0.67976 1.2103 1.8901 1.8901t2.5367 0.6798q1.3347 0 2.5367-0.6798 1.2103-0.6798 1.8901-1.8901t0.67976-2.545q0-1.3429-0.69634-2.5698-0.68805-1.2269-1.8984-1.8818-1.202-0.6549-2.5118-0.6549zm-2.8766 8.5054v-6.7396h1.3678q1.9232 0 2.1553 0.016 0.67977 0.058 1.0528 0.2736 0.38133 0.2072 0.63002 0.6466 0.25698 0.4311 0.25698 0.9616 0 0.7295-0.4808 1.2518-0.47252 0.514-1.3347 0.6383 0.30672 0.1161 0.47252 0.257 0.16579 0.1326 0.45594 0.5139 0.0746 0.1 0.49738 0.8207l0.79582 1.3596h-1.6911l-0.56371-1.0943q-0.572-1.1025-0.94504-1.3844-0.37304-0.2901-0.94503-0.2901h-0.35646v2.7688zm1.3678-3.8299h0.55541q1.1854 0 1.4673-0.091 0.29014-0.091 0.45593-0.315 0.1658-0.2321 0.1658-0.5223 0-0.2818-0.1658-0.4974-0.1575-0.2238-0.45593-0.315-0.29844-0.1-1.4673-0.1h-0.55541z" stroke-width="33.955" aria-label="®"/>
  </g>
 </g>
</svg>
