<?xml version="1.0" encoding="UTF-8"?>
<!-- Created with Inkscape (http://www.inkscape.org/) -->
<svg width="50.874mm" height="6.35mm" version="1.1" viewBox="0 0 50.874 6.35" xmlns="http://www.w3.org/2000/svg">
	<g transform="translate(-83.079 -151.08)">
		<path d="m84.565 151.08c-.82059 7e-4-1.4856.6657-1.4863 1.4863v3.2755c.00069.8206.66571 1.4856 1.4863 1.4863h1.5529c.30374 0 .5922-.1322.79016-.3627l2.2093-2.5737v2.9364h1.409v-4.4868h.00051c-.00017-.1918-.15248-.3469-.34322-.3518h-.94575c-.009 0-.0174-4e-4-.0259 0-.17848-.014-.31712-.1676-.31729-.3508h.00052v-.7048c-.00018-.1949-.15738-.3518-.35237-.3518zm5.5891 0c-.0637 2e-4-.12509.015-.18355.048-.0586.032-.10458.077-.13831.1368-.0334.06-.0503.1221-.0503.187 0 .065.0166.1272.0493.1862.0331.059.0786.1049.13729.1378.0589.032.12129.049.18609.049s.12645-.016.18509-.049c.059-.034.10455-.079.13728-.1378.0331-.059.0498-.1212.0498-.1862s-.0171-.1273-.0508-.187c-.0334-.06-.0797-.1053-.13831-.1368-.0586-.033-.11929-.048-.18305-.048zm.001.074c.0513 0 .10001.013.14696.038.0473.025.0844.063.11135.1102.0273.048.0407.098.0407.1506 0 .052-.0131.1023-.0397.1495-.0266.047-.0636.084-.11084.1103-.047.027-.0963.041-.14848.041-.0519 0-.10169-.014-.14898-.041-.0473-.027-.0843-.063-.11085-.1103-.0263-.047-.0391-.097-.0391-.1495 0-.052.0133-.1026.0402-.1506.0272-.048.0643-.085.11135-.1102.0469-.026.0962-.038.14745-.038zm37.62.028v.9747h1.1364v-.9747zm-37.782.063v.4145h.0758v-.1567h.0991c.0218 0 .0374-2e-4.0468.012.009.01.0145.021.0158.037l.009.1088h.0773l-.0107-.1206c-.002-.025-.0102-.043-.0249-.055-.009-.01-.0175-.012-.029-.015v-5e-4h.00203l.00102-.001c.003 0 .006-.01.009-.01l.00051-4e-4h.00102l.00051-5e-4h.00101l.00051-5e-4h.00052c.014-.01.0254-.02.0335-.036.008-.015.0122-.032.0122-.051 0-.026-.006-.047-.0183-.066-.0121-.019-.029-.033-.0508-.043-.0217-.01-.0474-.015-.0773-.015zm6.0081.014-2.188 6.0687h1.1624l.5044-1.436h2.4015l.50441 1.436h1.1624l-2.1879-6.0687zm-5.9323.05h.0895c.0249 0 .0435.01.0564.017.0133.011.0198.027.0198.047s-.007.035-.0193.046c-.0129.011-.031.017-.0539.017h-.0925zm14.93.3855v1.0687h-.71796v.8461h.71796v2.4102c0 .4503.10542.7808.31627.9915.21653.2109.55244.3163 1.0083.3163h.97474v-.8461h-.64118c-.19374 0-.33594-.039-.42711-.1194-.0912-.086-.13678-.2342-.13678-.445v-2.3075h1.2051v-.8461h-1.2051v-1.0687zm19.959 0v1.0687h-.71796v.8461h.71796v2.4102c0 .4503.10543.7808.31627.9915.21652.2109.55295.3163 1.0088.3163h.97424v-.8461h-.64118c-.19375 0-.33596-.039-.42713-.1194-.0912-.086-.13677-.2342-.13677-.445v-2.3075h1.2051v-.8461h-1.2051v-1.0687zm-28.273.6838.87203 2.5643h-1.7522zm-12.128.1089c.003-3e-4.005 0 .008 0v4e-4h4.3306l-2.9466 3.4312h-1.3841c-.043 0-.0781-.035-.0778-.078v-3.2765c-.00023-.041.0304-.073.0696-.077zm25.18.1733c-.45016 0-.84589.1-1.1878.299-.33619.1938-.59855.4703-.7866.8293-.18233.3533-.27355.7722-.27355 1.2565 0 .4787.0912.8974.27355 1.2564.18805.359.45041.6381.7866.8375.34189.1937.73762.2908 1.1878.2908s.84345-.097 1.1796-.2908c.33619-.1994.59562-.4785.77796-.8375.18805-.359.2822-.7777.2822-1.2564 0-.4843-.0942-.9032-.2822-1.2565-.18234-.359-.44177-.6355-.77796-.8293-.3362-.1994-.72949-.299-1.1796-.299zm5.0923 0c-.22224 0-.42771.049-.61577.1454-.18233.091-.33876.225-.46982.4018-.069.094-.12682.1991-.17338.3157l-.0234-.7607h-.99152v4.5646h1.0942v-2.6155c0-.2452.0343-.4531.10271-.624.0741-.1767.17069-.3106.29034-.4018.12537-.091.27641-.1367.45305-.1367.27921 0 .47587.1.58983.299.11396.1995.17084.4873.17084.8635v2.6155h1.0174v-2.6155c0-.2452.0314-.4531.0941-.624.0684-.1767.16496-.3106.29033-.4018.12536-.091.27641-.1367.45305-.1367.26212 0 .45581.094.58118.2822.13106.1882.19678.47.19678.8461v2.6497h1.0937v-2.9319c0-.376-.0623-.6924-.18762-.9488-.11967-.2564-.29377-.4501-.52169-.5812-.22793-.1367-.49863-.2049-.81202-.2049-.23934 0-.45558.049-.64932.1454-.18804.097-.34497.2361-.47034.4185-.077.1086-.14008.2344-.18915.3773-.0805-.2469-.20824-.4496-.38339-.6082-.23931-.2222-.55267-.333-.94015-.333zm6.9569 0c-.45016 0-.8459.1-1.1878.299-.3362.1938-.59857.4703-.7866.8293-.18235.3533-.27356.7722-.27356 1.2565 0 .4787.0912.8974.27356 1.2564.18803.359.4504.6381.7866.8375.3419.1937.73764.2908 1.1878.2908.45015 0 .84344-.097 1.1796-.2908.3362-.1994.59561-.4785.77796-.8375.18804-.359.2822-.7777.2822-1.2564 0-.4843-.0942-.9032-.2822-1.2565-.18235-.359-.44176-.6355-.77796-.8293-.3362-.1994-.72949-.299-1.1796-.299zm-21.929.1022v2.9405c0 .5414.13388.9661.40169 1.2736.27352.3022.64081.4527 1.1024.4527v5e-4c.42167 0 .76052-.1109 1.0169-.333.15436-.1339.2748-.306.36101-.5161l.0152.7464h1.0002v-4.5646h-1.0942v2.6242c0 .3761-.0824.6639-.24762.8635-.15956.1936-.38759.2903-.6839.2903-.26211 0-.45877-.088-.58982-.2649-.12536-.1823-.18814-.4643-.18814-.8462v-2.6669zm27.935 0v4.5646h1.0942v-4.5646zm1.528 0 1.6668 4.5646h1.2991l1.6668-4.5646h-1.1537l-1.1624 3.4616-1.1629-3.4616zm-19.583.7866c.35328 0 .62399.134.81202.4018.19375.2621.29085.6269.29085 1.0942 0 .473-.0971.8402-.29085 1.1023-.18803.2622-.45874.3936-.81202.3936-.35329 0-.62642-.1314-.82016-.3936-.19373-.2621-.29084-.6293-.29084-1.1023 0-.4673.0971-.8321.29084-1.0942.19374-.2678.46687-.4018.82016-.4018zm12.049 0c.35329 0 .62398.134.81202.4018.19373.2621.29085.6269.29085 1.0942 0 .473-.0971.8402-.29085 1.1023-.18804.2622-.45873.3936-.81202.3936-.3533 0-.62644-.1314-.82018-.3936-.19374-.2621-.29083-.6293-.29083-1.1023 0-.4673.0971-.8321.29083-1.0942.19374-.2678.46688-.4018.82018-.4018z" style="fill:#ffffff;stroke-width:14.204"/>
	</g>
</svg>
